<?xml version="1.0" standalone="no"?>
<!DOCTYPE svg PUBLIC "-//W3C//DTD SVG 20010904//EN"
 "http://www.w3.org/TR/2001/REC-SVG-20010904/DTD/svg10.dtd">
<svg version="1.0" xmlns="http://www.w3.org/2000/svg"
 width="167.000000pt" height="156.000000pt" viewBox="0 0 167.000000 156.000000"
 preserveAspectRatio="xMidYMid meet">

<g transform="translate(0.000000,156.000000) scale(0.100000,-0.100000)"
fill="#000000" stroke="none">
<path d="M848 1373 l-258 -178 0 -411 0 -411 248 -173 c136 -95 257 -175 270
-178 31 -6 104 23 133 54 l24 26 0 678 0 679 -29 30 c-23 24 -99 61 -125 61
-3 0 -122 -80 -263 -177z"/>
<path d="M85 1147 c-18 -18 -38 -51 -44 -72 -7 -25 -11 -141 -11 -300 0 -286
6 -317 65 -363 26 -21 37 -22 231 -22 l204 0 0 395 0 395 -206 0 -206 0 -33
-33z"/>
<path d="M1461 1052 l-30 -59 24 -23 c88 -83 93 -294 8 -382 l-25 -27 29 -51
30 -51 31 35 c70 80 112 189 112 291 0 105 -50 232 -115 295 l-33 32 -31 -60z"/>
</g>
</svg>
