<?xml version="1.0" standalone="no"?>
<!DOCTYPE svg PUBLIC "-//W3C//DTD SVG 20010904//EN"
 "http://www.w3.org/TR/2001/REC-SVG-20010904/DTD/svg10.dtd">
<svg version="1.0" xmlns="http://www.w3.org/2000/svg"
 width="229.000000pt" height="159.000000pt" viewBox="0 0 229.000000 159.000000"
 preserveAspectRatio="xMidYMid meet">

<g transform="translate(0.000000,159.000000) scale(0.100000,-0.100000)"
fill="#000000" stroke="none">
<path d="M848 1393 l-258 -178 0 -411 0 -411 248 -173 c136 -95 257 -175 270
-178 31 -6 104 23 133 54 l24 26 0 678 0 679 -29 30 c-23 24 -99 61 -125 61
-3 0 -122 -80 -263 -177z"/>
<path d="M1900 1521 l-41 -50 51 -63 c64 -79 154 -258 182 -363 32 -120 32
-346 0 -470 -30 -114 -105 -270 -175 -361 l-55 -71 41 -52 41 -52 32 38 c57
67 135 200 175 296 100 243 110 541 28 792 -34 101 -105 237 -168 323 -34 45
-63 82 -65 82 -2 0 -23 -22 -46 -49z"/>
<path d="M1678 1307 l-36 -52 44 -55 c54 -68 98 -156 120 -241 20 -78 23 -214
5 -289 -20 -83 -72 -188 -124 -252 -26 -32 -47 -61 -47 -64 0 -3 16 -28 36
-55 l36 -49 41 49 c231 271 245 678 33 975 -66 93 -66 93 -108 33z"/>
<path d="M85 1167 c-18 -18 -38 -51 -44 -72 -7 -25 -11 -141 -11 -300 0 -286
6 -317 65 -363 26 -21 37 -22 231 -22 l204 0 0 395 0 395 -206 0 -206 0 -33
-33z"/>
<path d="M1461 1072 l-30 -59 24 -23 c88 -83 93 -294 8 -382 l-25 -27 29 -51
30 -51 31 35 c70 80 112 189 112 291 0 105 -50 232 -115 295 l-33 32 -31 -60z"/>
</g>
</svg>
