<?xml version="1.0" standalone="no"?>
<!DOCTYPE svg PUBLIC "-//W3C//DTD SVG 20010904//EN"
 "http://www.w3.org/TR/2001/REC-SVG-20010904/DTD/svg10.dtd">
<svg version="1.0" xmlns="http://www.w3.org/2000/svg"
 width="192.000000pt" height="162.000000pt" viewBox="0 0 192.000000 162.000000"
 preserveAspectRatio="xMidYMid meet">

<g transform="translate(0.000000,162.000000) scale(0.100000,-0.100000)"
fill="#000000" stroke="none">
<path d="M878 1403 l-258 -178 0 -411 0 -411 248 -173 c136 -95 257 -175 270
-178 31 -6 104 23 133 54 l24 26 0 678 0 679 -29 30 c-23 24 -99 61 -125 61
-3 0 -122 -80 -263 -177z"/>
<path d="M115 1177 c-18 -18 -38 -51 -44 -72 -7 -25 -11 -141 -11 -300 0 -286
6 -317 65 -363 26 -21 37 -22 231 -22 l204 0 0 395 0 395 -206 0 -206 0 -33
-33z"/>
<path d="M1725 1005 c-50 -63 -71 -83 -79 -75 -6 6 -29 41 -52 78 -35 58 -44
67 -70 67 -48 0 -43 -37 20 -139 l55 -89 -51 -66 c-29 -36 -65 -82 -81 -102
-36 -46 -34 -83 4 -87 23 -3 37 10 99 88 40 50 75 89 78 86 3 -3 26 -41 52
-83 41 -69 50 -78 76 -78 48 0 43 34 -22 140 -40 67 -54 99 -47 107 5 7 40 51
77 97 50 63 66 91 64 110 -2 20 -9 27 -30 29 -22 3 -35 -9 -93 -83z"/>
</g>
</svg>
